<svg width="2050" height="2050" viewBox="0 0 2050 2050" fill="none" xmlns="http://www.w3.org/2000/svg">
<g clip-path="url(#clip0_201_4)">
<path d="M1339.14 713.13V50.698C1238.98 16.552 1131.99 0.617188 1025 0.617188C908.901 0.617188 792.804 21.1048 685.814 57.5272L1336.86 708.578L1339.14 713.13ZM1339.14 1336.86L1336.86 1339.14H2001.57C2033.44 1238.98 2049.38 1131.99 2049.38 1025C2049.38 908.901 2028.89 792.804 1992.47 685.814L1339.14 1336.86ZM1468.9 100.779V1027.27L1937.83 558.335C1835.4 360.288 1669.22 198.664 1468.9 100.779ZM1022.72 1468.9L1491.66 1937.83C1689.71 1835.4 1851.33 1669.22 1949.22 1468.9H1022.72ZM710.854 1999.3C811.016 2033.44 918.006 2049.38 1025 2049.38C1141.09 2049.38 1257.19 2028.89 1364.18 1992.47L710.854 1336.86V1999.3ZM1027.27 581.099L558.335 112.161C360.288 214.599 198.664 380.776 100.779 581.099H1027.27ZM713.13 710.854H50.698C16.552 811.016 0.617188 918.006 0.617188 1025C0.617188 1141.09 21.1048 1257.19 57.5272 1364.18L708.578 713.13L713.13 710.854ZM581.099 1949.22V1022.72L112.161 1491.66C214.599 1689.71 380.776 1851.33 581.099 1949.22Z" fill="white"/>
</g>
<defs>
<clipPath id="clip0_201_4">
<rect width="2048.76" height="2048.76" fill="white" transform="translate(0.617188 0.617188)"/>
</clipPath>
</defs>
</svg>
